HIERARCHY
ROOT Hips
{
	OFFSET 0.00000 0.00000 0.00000
	CHANNELS 6 Xposition Yposition Zposition Zrotation Yrotation Xrotation 
	JOINT LHipJoint
	{
		OFFSET 0 0 0
		CHANNELS 3 Zrotation Yrotation Xrotation
		JOINT LeftUpLeg
		{
			OFFSET 1.64549 -1.70879 0.84566
			CHANNELS 3 Zrotation Yrotation Xrotation
			JOINT LeftLeg
			{
				OFFSET 2.24963 -6.18082 0.00000
				CHANNELS 3 Zrotation Yrotation Xrotation
				JOINT LeftFoot
				{
					OFFSET 2.71775 -7.46697 0.00000
					CHANNELS 3 Zrotation Yrotation Xrotation
					JOINT LeftToeBase
					{
						OFFSET 0.18768 -0.51564 2.24737
						CHANNELS 3 Zrotation Yrotation Xrotation
						End Site
						{
							OFFSET 0.00000 -0.00000 1.15935
						}
					}
				}
			}
		}
	}
	JOINT RHipJoint
	{
		OFFSET 0 0 0
		CHANNELS 3 Zrotation Yrotation Xrotation
		JOINT RightUpLeg
		{
			OFFSET -1.58830 -1.70879 0.84566
			CHANNELS 3 Zrotation Yrotation Xrotation
			JOINT RightLeg
			{
				OFFSET -2.25006 -6.18201 0.00000
				CHANNELS 3 Zrotation Yrotation Xrotation
				JOINT RightFoot
				{
					OFFSET -2.72829 -7.49593 0.00000
					CHANNELS 3 Zrotation Yrotation Xrotation
					JOINT RightToeBase
					{
						OFFSET -0.21541 -0.59185 2.10643
						CHANNELS 3 Zrotation Yrotation Xrotation
						End Site
						{
							OFFSET -0.00000 -0.00000 1.09838
						}
					}
				}
			}
		}
	}
	JOINT LowerBack
	{
		OFFSET 0 0 0
		CHANNELS 3 Zrotation Yrotation Xrotation
		JOINT Spine
		{
			OFFSET 0.03142 2.10496 -0.11038
			CHANNELS 3 Zrotation Yrotation Xrotation
			JOINT Spine1
			{
				OFFSET -0.01863 2.10897 -0.06956
				CHANNELS 3 Zrotation Yrotation Xrotation
				JOINT Neck
				{
					OFFSET 0 0 0
					CHANNELS 3 Zrotation Yrotation Xrotation
					JOINT Neck1
					{
						OFFSET -0.02267 1.73238 0.00451
						CHANNELS 3 Zrotation Yrotation Xrotation
						JOINT Head
						{
							OFFSET -0.05808 1.54724 -0.61749
							CHANNELS 3 Zrotation Yrotation Xrotation
							End Site
							{
								OFFSET -0.01396 1.71468 -0.21082
							}
						}
					}
				}
				JOINT LeftShoulder
				{
					OFFSET 0 0 0
					CHANNELS 3 Zrotation Yrotation Xrotation
					JOINT LeftArm
					{
						OFFSET 3.44898 0.50298 0.21920
						CHANNELS 3 Zrotation Yrotation Xrotation
						JOINT LeftForeArm
						{
							OFFSET 5.41917 -0.00000 -0.00000
							CHANNELS 3 Zrotation Yrotation Xrotation
							JOINT LeftHand
							{
								OFFSET 2.44373 -0.00000 0.00000
								CHANNELS 3 Zrotation Yrotation Xrotation
								JOINT LeftFingerBase
								{
									OFFSET 0 0 0
									CHANNELS 3 Zrotation Yrotation Xrotation
									JOINT LeftHandIndex1
									{
										OFFSET 0.72750 -0.00000 0.00000
										CHANNELS 3 Zrotation Yrotation Xrotation
										End Site
										{
											OFFSET 0.58653 -0.00000 0.00000
										}
									}
								}
								JOINT LThumb
								{
									OFFSET 0 0 0
									CHANNELS 3 Zrotation Yrotation Xrotation
									End Site
									{
										OFFSET 0.59549 -0.00000 0.59549
									}
								}
							}
						}
					}
				}
				JOINT RightShoulder
				{
					OFFSET 0 0 0
					CHANNELS 3 Zrotation Yrotation Xrotation
					JOINT RightArm
					{
						OFFSET -3.23015 0.55830 0.31051
						CHANNELS 3 Zrotation Yrotation Xrotation
						JOINT RightForeArm
						{
							OFFSET -5.58976 -0.00010 0.00014
							CHANNELS 3 Zrotation Yrotation Xrotation
							JOINT RightHand
							{
								OFFSET -2.48060 -0.00000 0.00000
								CHANNELS 3 Zrotation Yrotation Xrotation
								JOINT RightFingerBase
								{
									OFFSET 0 0 0
									CHANNELS 3 Zrotation Yrotation Xrotation
									JOINT RightHandIndex1
									{
										OFFSET -0.81601 -0.00000 0.00000
										CHANNELS 3 Zrotation Yrotation Xrotation
										End Site
										{
											OFFSET -0.65789 -0.00000 0.00000
										}
									}
								}
								JOINT RThumb
								{
									OFFSET 0 0 0
									CHANNELS 3 Zrotation Yrotation Xrotation
									End Site
									{
										OFFSET -0.66793 -0.00000 0.66793
									}
								}
							}
						}
					}
				}
			}
		}
	}
}
MOTION
Frames: 9
Frame Time: 0.025641
0.00 0.00 0.00 -171.8730 2.3706 -162.3270 0.0000 0.0000 0.0000 -20.0698 -5.5170 -27.6471 5.5608 13.9887 43.1923 0.7406 14.6682 -27.3773 1.1579 -6.8316 -19.2174 0.0000 0.0000 0.0000 19.5166 6.1581 -75.8520 -15.9161 -19.5953 77.9816 -4.1350 -27.9652 39.2826 -1.0143 -6.4078 17.9722 4.5900 0.1439 6.8066 2.9176 0.9094 -1.7695 0.3536 0.4069 -5.6574 0.4507 0.6065 -20.0314 0.0783 1.5674 26.3606 0.2700 1.0652 11.9979 -0.0000 -0.0000 0.0000 -30.1704 12.3053 -18.6053 6.7878 -11.5694 -0.6884 -0.0000 -0.0000 59.7806 15.2804 20.1184 5.3683 -7.1250 0.0000 -0.0000 -13.1022 50.3128 -1.7418 -0.0000 -0.0000 0.0000 30.9316 0.0006 -70.3809 -6.3686 10.8755 -0.6069 0.0000 0.0000 49.3791 -24.4768 19.1095 -8.4766 7.1250 -0.0000 -0.0000 2.4326 -9.1542 2.0165
0.00 0.00 0.00 -172.3530 3.0297 -161.6800 0.0000 0.0000 0.0000 -21.4897 -5.5263 -26.0476 5.7235 14.1550 43.8619 2.4196 10.9450 -34.8876 1.0244 -6.4385 -18.0623 0.0000 0.0000 0.0000 17.1862 13.3524 -72.3262 -10.4055 -17.6317 60.8353 -0.1238 -33.9191 24.6957 -2.0647 -8.9996 25.7941 4.9184 0.1904 5.9177 1.8599 0.7606 -0.3563 -0.9066 0.3385 -3.6574 1.0172 1.0931 -19.7262 0.8323 1.3560 21.3778 0.3419 0.9404 10.0763 0.0000 -0.0000 0.0000 -40.5639 10.4490 -18.9766 6.3568 -10.8559 -0.6046 -0.0000 -0.0000 63.5422 12.6555 19.6873 4.3259 -7.1250 0.0000 -0.0000 -15.4298 49.4835 -1.7430 0.0000 -0.0000 0.0000 41.0091 2.2568 -79.6174 -5.2797 9.0556 -0.4184 0.0000 0.0000 54.0570 -23.4267 16.1836 -6.8860 7.1250 -0.0000 -0.0000 2.8792 -12.4450 2.1939
0.00 0.00 0.00 -176.6920 3.3015 -162.6040 0.0000 0.0000 0.0000 -27.3427 -4.6146 -19.7650 4.8336 13.1940 40.0989 4.2775 8.1792 -42.3897 0.5235 -4.6368 -12.8754 0.0000 0.0000 0.0000 6.2967 21.2632 -69.4233 -5.1328 -13.5318 41.3934 3.4145 -36.0863 6.9961 -2.9752 -10.6547 31.1241 0.3232 -0.1291 6.7652 0.1860 -0.0936 0.8265 0.0177 -0.0286 -2.9403 1.4482 1.4224 -21.5325 1.8074 1.2097 18.3911 0.5687 0.9270 9.3453 0.0000 -0.0000 0.0000 -56.7366 2.9006 -14.7657 5.9164 -10.1227 -0.5245 -0.0000 -0.0000 64.2631 5.6258 20.1552 1.9440 -7.1250 0.0000 -0.0000 -22.1529 48.8940 -2.2276 0.0000 -0.0000 0.0000 57.2837 5.8463 -62.9053 -4.2722 7.3522 -0.2746 0.0000 0.0000 40.2915 -18.8987 12.5786 -4.2639 7.1250 -0.0000 -0.0000 5.7934 -16.7525 3.8978
0.00 0.00 0.00 -179.1360 2.9072 -162.7940 0.0000 0.0000 0.0000 -29.9969 -4.0440 -17.6906 4.4424 12.7270 38.3548 4.5018 8.0224 -43.2931 0.5954 -4.9397 -13.7366 0.0000 0.0000 0.0000 -1.1796 24.4990 -70.2374 -4.4903 -12.7857 38.5716 4.7799 -35.3294 -13.6808 -5.1474 -13.5479 41.4558 -2.1334 -0.3505 6.9725 -0.4074 -0.5976 0.6066 0.8342 -0.2493 -3.2649 1.5758 1.3463 -21.2438 1.7234 1.0842 17.8757 0.4934 0.8580 9.1165 0.0000 -0.0000 0.0000 -62.3876 -0.3751 -14.9191 5.6522 -9.6808 -0.4790 -0.0000 -0.0000 67.6530 5.3533 20.1727 1.8509 -7.1250 0.0000 -0.0000 -22.4098 48.8709 -2.2427 0.0000 -0.0000 0.0000 62.4203 7.5672 -56.3208 -3.9426 6.7914 -0.2340 0.0000 0.0000 36.8102 -18.4067 12.1688 -4.0126 7.1250 -0.0000 -0.0000 6.1279 -17.2214 4.0624
0.00 0.00 0.00 -180.1110 2.7565 -162.7740 0.0000 0.0000 0.0000 -31.0528 -3.3787 -17.2498 4.2924 12.5396 37.6687 3.7418 12.3518 -42.2011 1.6168 -8.0176 -22.7676 0.0000 0.0000 0.0000 -6.0472 27.3186 -70.7169 -4.3028 -12.5527 37.7165 1.1138 -26.5928 -30.6072 -7.9256 -16.0642 52.2941 -3.2979 -0.3380 6.6633 -0.5689 -0.6516 0.7022 1.3227 -0.2623 -2.9800 1.3652 1.1721 -21.4493 1.7850 0.8793 17.5672 0.5189 0.7466 9.0443 0.0000 0.0000 0.0000 -65.2895 -2.9317 -17.3742 5.3115 -9.1091 -0.4234 -0.0000 -0.0000 71.9040 6.0664 19.9590 2.0776 -7.1250 0.0000 -0.0000 -21.6597 48.7755 -2.1078 0.0000 0.0000 0.0000 64.8615 8.7065 -53.3585 -3.7715 6.4998 -0.2142 0.0000 0.0000 34.9583 -19.0055 12.2248 -4.1714 7.1250 -0.0000 -0.0000 5.7122 -17.1133 3.7974
0.00 0.00 0.00 -181.8280 -0.6056 -160.8000 0.0000 0.0000 0.0000 -31.2006 -2.0262 -11.0041 3.7661 11.8424 35.1768 4.3071 8.0560 -42.4627 2.4868 -9.8139 -28.3763 0.0000 0.0000 0.0000 3.8024 18.1414 -74.3035 -4.4751 -12.7671 38.5026 3.2326 -33.1417 2.7570 -2.0323 -8.9330 25.5859 -2.9574 -0.7813 1.3156 -0.0763 -1.1057 -0.6018 1.6053 -0.5306 -1.3003 -0.4801 0.0005 -22.6469 0.7044 0.0590 18.1229 0.3365 0.1007 9.4466 0.0000 0.0000 0.0000 -90.9238 -19.8083 15.9328 6.2066 -10.6062 -0.5767 -0.0000 -0.0000 52.4993 10.2562 19.9193 3.5276 -7.1250 0.0000 -0.0000 -17.7738 49.3494 -1.9621 0.0000 0.0000 0.0000 84.1073 17.6917 -23.0552 -5.2684 9.0366 -0.4166 0.0000 0.0000 10.5824 -18.6187 15.1107 -5.0191 7.1250 -0.0000 -0.0000 6.0541 -14.1391 4.4170
0.00 0.00 0.00 -182.8420 -3.3282 -159.2990 0.0000 0.0000 0.0000 -31.2691 -6.1332 -3.4486 3.2602 11.1048 32.6341 3.0308 12.6953 -39.1458 3.6683 -11.7054 -34.6976 0.0000 0.0000 0.0000 7.4687 15.6199 -74.1889 -6.5827 -14.9702 47.2778 0.5500 -18.7430 7.5845 -1.1867 -6.9130 19.4579 -3.3325 -1.5459 -3.8281 0.5564 -2.1736 -3.7287 2.3863 -1.0935 -1.5503 -1.0989 -0.3935 -21.3672 0.2930 0.0834 22.2473 0.3255 0.1101 10.6970 0.0000 -0.0000 0.0000 -102.7192 -24.4198 54.5293 10.9789 -18.2558 -1.7693 -0.0000 -0.0000 18.7700 15.1537 19.9657 5.2834 -7.1250 0.0000 -0.0000 -13.1658 50.1411 -1.6942 0.0000 -0.0000 0.0000 93.8520 21.1987 11.9497 -8.4780 14.3248 -1.0673 0.0000 -0.0000 -20.1607 -16.7237 13.5105 -4.0153 7.1250 -0.0000 -0.0000 7.3092 -15.9714 5.0577
0.00 0.00 0.00 -180.2810 -10.4471 -155.3930 0.0000 0.0000 0.0000 -25.0194 -11.6729 -0.8416 3.5187 11.4908 33.9536 0.6653 16.2238 -28.4944 1.1026 -6.6721 -18.7476 0.0000 0.0000 0.0000 11.4883 13.9497 -71.4674 -8.1728 -16.2449 53.1827 0.4817 -12.4790 -7.4834 -0.2756 -3.3767 9.3293 1.9257 -2.1228 -14.4073 2.1008 -4.4696 -9.3636 0.5740 -2.8883 -1.7909 -2.4191 0.8891 -17.6060 0.5383 0.3506 29.3682 0.5464 -0.6307 12.6861 -0.0000 0.0000 0.0000 -108.4246 -34.7982 88.3158 23.2264 -34.3355 -7.2656 -0.0000 0.0000 -4.5392 15.6060 21.4499 5.8322 -7.1250 0.0000 -0.0000 -13.3122 51.6881 -2.2254 -0.0000 0.0000 0.0000 98.6290 25.9889 48.2137 -18.4315 28.7062 -4.7547 0.0000 -0.0000 -47.8422 -4.2563 6.3744 -0.4734 7.1250 -0.0000 -0.0000 16.4540 -23.6103 8.8435
0.00 0.00 0.00 -184.1780 -16.1410 -160.3090 0.0000 0.0000 0.0000 -26.0179 -9.1633 -14.3435 3.0974 10.8511 31.7793 -1.4413 21.5841 -14.9862 0.1935 -2.8327 -7.8133 0.0000 0.0000 0.0000 9.3716 19.9465 -43.1636 -5.3538 -13.7715 42.3298 3.7291 -32.6615 -4.9543 -1.3002 -7.2239 20.3805 -4.2107 -1.5698 -12.6573 -0.7270 -3.0352 -9.6543 1.3308 -1.9065 -2.9492 -2.7547 -1.2094 -10.6250 2.8572 -5.4949 34.0028 0.5372 -3.6013 13.3486 0.0000 0.0000 0.0000 -115.2554 -70.3657 121.9266 69.5387 -58.3574 -42.3777 -0.0000 0.0000 -18.2283 12.2077 25.8554 5.3899 -7.1250 0.0000 -0.0000 -18.8380 55.3454 -4.9114 0.0000 0.0000 0.0000 80.4835 54.9849 60.5398 -59.8001 56.2564 -34.1748 0.0000 -0.0000 -35.7780 12.5999 10.2582 2.2795 7.1250 -0.0000 -0.0000 27.1490 -19.7645 18.5542
